<?xml version="1.0" encoding="iso-8859-1"?>
<!-- Generator: Adobe Illustrator 19.0.0, SVG Export Plug-In . SVG Version: 6.00 Build 0)  -->
<svg version="1.1" id="Capa_1" xmlns="http://www.w3.org/2000/svg" xmlns:xlink="http://www.w3.org/1999/xlink" x="0px" y="0px"
	 viewBox="0 0 512 512" style="enable-background:new 0 0 512 512;" xml:space="preserve">
<rect x="175.5" y="428" style="fill:#005ED3;" width="161" height="84"/>
<rect x="256" y="428" style="fill:#00459F;" width="80.5" height="84"/>
<rect x="139" y="482" style="fill:#00F8FE;" width="239" height="30"/>
<rect x="256" y="482" style="fill:#00CFFF;" width="122" height="30"/>
<path style="fill:#FF8900;" d="M512,0v512H353v-15c0-5.14,0.14-10.14,0.43-15c0.07-1.16,0.14-2.31,0.22-3.46
	c0.08-1.14,0.17-2.28,0.27-3.41c0.09-1.01,0.18-2.02,0.28-3.02c0.01-0.18,0.03-0.36,0.05-0.54c0.11-1.05,0.22-2.09,0.34-3.13
	c0.1-0.87,0.2-1.73,0.31-2.59c0.04-0.41,0.1-0.82,0.15-1.23c0.08-0.59,0.16-1.18,0.24-1.76c0.08-0.59,0.17-1.18,0.26-1.77
	c0.06-0.48,0.13-0.95,0.21-1.42c0.08-0.54,0.16-1.07,0.25-1.6c0.1-0.62,0.21-1.23,0.31-1.84c0.25-1.49,0.52-2.96,0.8-4.42
	c0.14-0.71,0.28-1.43,0.42-2.13c0.04-0.23,0.09-0.46,0.14-0.69c0.18-0.85,0.35-1.68,0.54-2.52c0.21-0.99,0.44-1.98,0.67-2.96
	c0.23-0.98,0.46-1.95,0.71-2.92c0.24-0.96,0.48-1.92,0.74-2.87c0.76-2.85,1.57-5.64,2.43-8.37c0.89-2.83,1.83-5.6,2.83-8.3
	c0.28-0.76,0.56-1.52,0.85-2.27s0.58-1.5,0.87-2.24c0.4-1.01,0.81-2.02,1.23-3.01c0.32-0.75,0.63-1.5,0.96-2.24
	c0.35-0.82,0.71-1.62,1.07-2.42c0.36-0.8,0.73-1.59,1.1-2.38s0.74-1.57,1.12-2.34c0.42-0.86,0.84-1.71,1.27-2.55
	c0.35-0.68,0.69-1.35,1.04-2.01c1.96-3.74,4.02-7.31,6.14-10.73c1.28-2.05,2.58-4.05,3.9-5.99c0.44-0.65,0.89-1.29,1.33-1.92
	c0.89-1.27,1.79-2.52,2.7-3.74c0.46-0.61,0.91-1.22,1.37-1.82c0.45-0.6,0.91-1.19,1.38-1.78c0.44-0.56,0.89-1.12,1.33-1.67
	c0.06-0.08,0.12-0.15,0.18-0.23c0.43-0.52,0.86-1.04,1.29-1.56c0.88-1.07,1.77-2.11,2.66-3.14c0.53-0.6,1.05-1.2,1.59-1.79
	c1.9-2.12,3.82-4.15,5.75-6.1c0.37-0.37,0.73-0.73,1.09-1.08c1.09-1.09,2.18-2.14,3.27-3.16c0.43-0.41,0.87-0.82,1.31-1.22
	c0.6-0.55,1.19-1.1,1.79-1.63c0.42-0.37,0.83-0.74,1.25-1.1c0.83-0.73,1.66-1.44,2.48-2.14c0.43-0.37,0.87-0.73,1.3-1.08
	c0.84-0.7,1.68-1.38,2.52-2.05c0.3-0.24,0.6-0.48,0.91-0.71c0.95-0.75,1.9-1.48,2.84-2.19c8.57-6.44,17.14-11.67,25.21-15.9
	c-58.71-23-103.74-68.23-131.62-132.91c-0.63-1.47-1.25-2.94-1.85-4.4c-0.48-1.15-0.95-2.29-1.4-3.43c-0.53-1.3-1.03-2.6-1.53-3.89
	c-0.49-1.25-0.96-2.5-1.42-3.74c-0.03-0.07-0.05-0.13-0.08-0.2c-0.46-1.24-0.91-2.48-1.36-3.72c-1.83-5.11-3.5-10.14-5.01-15.06
	c-0.33-1.06-0.65-2.11-0.96-3.16c-1.08-3.61-2.07-7.16-2.99-10.62c-0.22-0.83-0.44-1.65-0.64-2.46c-0.65-2.48-1.25-4.91-1.81-7.3
	c-0.35-1.46-0.68-2.9-1-4.32c-0.24-1.09-0.48-2.16-0.71-3.22c-0.23-1.06-0.45-2.11-0.66-3.15c-0.05-0.26-0.11-0.53-0.16-0.79
	c-0.15-0.74-0.3-1.47-0.44-2.19c-0.91-4.61-1.68-8.97-2.33-13.01c-0.15-0.88-0.28-1.75-0.42-2.6c-0.33-2.18-0.62-4.25-0.89-6.22
	c-0.1-0.75-0.2-1.48-0.29-2.19c-0.02-0.22-0.05-0.43-0.08-0.64c-0.06-0.45-0.11-0.9-0.17-1.33c-0.18-1.56-0.35-3.04-0.51-4.43
	c-0.26-2.48-0.47-4.69-0.63-6.59c-0.06-0.62-0.1-1.21-0.15-1.76c-0.1-1.35-0.17-2.5-0.23-3.45c-0.03-0.39-0.05-0.74-0.06-1.05
	c-0.01-0.2-0.02-0.38-0.03-0.55c-0.01-0.13-0.01-0.25-0.02-0.37c-0.02-0.59-0.04-0.96-0.04-1.11l-1-47h-64.42l-1,47
	c-0.02,0.69-0.21,6.07-1.16,14.88c-2.24,20.65-8.63,60.14-26.71,102.07c-27.88,64.68-72.91,109.91-131.62,132.91
	c8.07,4.23,16.64,9.46,25.21,15.9c30.18,22.7,65.81,64.96,70.06,139.24c0.29,4.86,0.43,9.86,0.43,15v15H0V0H512z"/>
<path style="fill:#FF4A00;" d="M512,0v512H353v-15c0-5.14,0.14-10.14,0.43-15c0.07-1.16,0.14-2.31,0.22-3.46
	c0.08-1.14,0.17-2.28,0.27-3.41c0.09-1.01,0.18-2.02,0.28-3.02c0.01-0.18,0.03-0.36,0.05-0.54c0.11-1.05,0.22-2.09,0.34-3.13
	c0.1-0.87,0.2-1.73,0.31-2.59c0.04-0.41,0.1-0.82,0.15-1.23c0.08-0.59,0.16-1.18,0.24-1.76c0.08-0.59,0.17-1.18,0.26-1.77
	c0.06-0.48,0.13-0.95,0.21-1.42c0.08-0.54,0.16-1.07,0.25-1.6c0.1-0.62,0.21-1.23,0.31-1.84c0.25-1.49,0.52-2.96,0.8-4.42
	c0.14-0.71,0.28-1.43,0.42-2.13c0.04-0.23,0.09-0.46,0.14-0.69c0.18-0.85,0.35-1.68,0.54-2.52c0.21-0.99,0.44-1.98,0.67-2.96
	c0.23-0.98,0.46-1.95,0.71-2.92c0.24-0.96,0.48-1.92,0.74-2.87c0.75-2.85,1.57-5.64,2.43-8.37c0.89-2.83,1.83-5.6,2.83-8.3
	c0.28-0.76,0.56-1.52,0.85-2.27s0.58-1.5,0.87-2.24c0.4-1.01,0.81-2.02,1.23-3.01c0.32-0.75,0.63-1.5,0.96-2.24
	c0.35-0.82,0.71-1.62,1.07-2.42c0.36-0.8,0.73-1.59,1.1-2.38s0.74-1.57,1.12-2.34c0.42-0.86,0.84-1.71,1.27-2.55
	c0.35-0.68,0.69-1.35,1.04-2.01c1.96-3.74,4.01-7.31,6.14-10.73c1.27-2.05,2.57-4.05,3.9-5.99c0.44-0.65,0.89-1.29,1.33-1.92
	c0.89-1.27,1.79-2.52,2.7-3.74c0.46-0.61,0.91-1.22,1.37-1.82c0.45-0.6,0.91-1.19,1.38-1.78c0.44-0.56,0.89-1.12,1.33-1.67
	c0.06-0.08,0.12-0.15,0.18-0.23c0.43-0.52,0.86-1.04,1.29-1.56c0.88-1.07,1.77-2.11,2.66-3.14c0.53-0.6,1.05-1.2,1.59-1.79
	c1.9-2.12,3.82-4.15,5.75-6.1c0.37-0.37,0.73-0.73,1.09-1.08c1.09-1.09,2.18-2.14,3.27-3.16c0.43-0.41,0.87-0.82,1.31-1.22
	c0.6-0.55,1.19-1.1,1.79-1.63c0.42-0.37,0.83-0.74,1.25-1.1c0.83-0.73,1.66-1.44,2.48-2.14c0.43-0.37,0.87-0.73,1.3-1.08
	c0.84-0.7,1.68-1.38,2.52-2.05c0.3-0.24,0.6-0.48,0.91-0.71c0.95-0.75,1.9-1.48,2.84-2.19c8.57-6.44,17.14-11.67,25.21-15.9
	c-58.71-23-103.74-68.23-131.62-132.91c-0.63-1.47-1.25-2.94-1.85-4.4c-0.48-1.15-0.95-2.29-1.4-3.43c-0.53-1.3-1.03-2.6-1.53-3.89
	c-0.49-1.25-0.96-2.5-1.42-3.74c-0.03-0.07-0.05-0.13-0.08-0.2c-0.46-1.24-0.91-2.48-1.36-3.72c-1.83-5.11-3.5-10.14-5.01-15.06
	c-0.33-1.06-0.65-2.11-0.96-3.16c-1.08-3.61-2.07-7.16-2.99-10.62c-0.22-0.83-0.44-1.65-0.64-2.46c-0.65-2.48-1.25-4.91-1.81-7.3
	c-0.35-1.46-0.68-2.9-1-4.32c-0.24-1.09-0.48-2.16-0.71-3.22c-0.22-1.06-0.45-2.11-0.66-3.15c-0.05-0.26-0.11-0.53-0.16-0.79
	c-0.15-0.74-0.3-1.47-0.44-2.19c-0.91-4.61-1.68-8.97-2.33-13.01c-0.15-0.88-0.28-1.75-0.42-2.6c-0.33-2.18-0.62-4.25-0.89-6.22
	c-0.1-0.75-0.2-1.48-0.29-2.19c-0.02-0.22-0.05-0.43-0.08-0.64c-0.06-0.45-0.11-0.9-0.17-1.33c-0.18-1.56-0.35-3.04-0.51-4.43
	c-0.26-2.48-0.47-4.69-0.63-6.59c-0.06-0.62-0.1-1.21-0.15-1.76c-0.1-1.35-0.17-2.5-0.23-3.45c-0.03-0.39-0.05-0.74-0.06-1.05
	c-0.01-0.2-0.02-0.38-0.03-0.55c-0.01-0.13-0.01-0.25-0.02-0.37c-0.02-0.59-0.04-0.96-0.04-1.11l-1-47H256V0H512z"/>
<g>
	<path style="fill:#FF4023;" d="M81.042,240.613l-25.849-15.227c45.492-77.228,51.539-154.696,51.594-155.469l29.926,2.109
		C136.474,75.459,130.269,157.045,81.042,240.613z"/>
	<path style="fill:#FF4023;" d="M74.17,512c0.43-47.27-26.59-92.81-26.87-93.27l25.72-15.46c1.32,2.2,31.54,53.17,31.15,108.73
		H74.17z"/>
</g>
<g>
	<path style="fill:#B7250F;" d="M430.957,240.613l25.849-15.227c-45.492-77.228-51.539-154.696-51.594-155.469l-29.926,2.109
		C375.526,75.459,381.731,157.045,430.957,240.613z"/>
	<path style="fill:#B7250F;" d="M437.83,512h-30c-0.39-55.56,29.83-106.53,31.15-108.73l25.72,15.46
		C464.42,419.19,437.4,464.73,437.83,512z"/>
</g>
<path style="fill:#E5280B;" d="M512,0v53.95c0,28.23-22.97,51.2-51.2,51.2s-51.2-22.97-51.2-51.2c0,28.23-22.97,51.2-51.2,51.2
	s-51.2-22.97-51.2-51.2c0,28.23-22.97,51.2-51.2,51.2s-51.2-22.97-51.2-51.2c0,28.23-22.97,51.2-51.2,51.2s-51.2-22.97-51.2-51.2
	c0,28.23-22.97,51.2-51.2,51.2S0,82.18,0,53.95V0H512z"/>
<path style="fill:#B7250F;" d="M512,0v53.95c0,28.23-22.97,51.2-51.2,51.2s-51.2-22.97-51.2-51.2c0,28.23-22.97,51.2-51.2,51.2
	s-51.2-22.97-51.2-51.2c0,28.23-22.97,51.2-51.2,51.2V0H512z"/>
<g>
</g>
<g>
</g>
<g>
</g>
<g>
</g>
<g>
</g>
<g>
</g>
<g>
</g>
<g>
</g>
<g>
</g>
<g>
</g>
<g>
</g>
<g>
</g>
<g>
</g>
<g>
</g>
<g>
</g>
</svg>
